<svg width="73" height="72" viewBox="0 0 73 72" fill="none" xmlns="http://www.w3.org/2000/svg">
<path d="M65.425 0H7.825C3.84855 0 0.625 3.22355 0.625 7.2V64.8C0.625 68.7764 3.84855 72 7.825 72H65.425C69.4014 72 72.625 68.7764 72.625 64.8V7.2C72.625 3.22355 69.4014 0 65.425 0Z" fill="#FFD96E"/>
<path d="M18.6251 57.6C18.0114 57.5982 17.4084 57.4395 16.8734 57.139C16.3383 56.8385 15.8889 56.4063 15.5679 55.8833C15.2468 55.3603 15.0648 54.7639 15.0392 54.1507C15.0135 53.5376 15.145 52.9281 15.4211 52.38L33.4211 16.3801C33.7232 15.7904 34.1822 15.2955 34.7475 14.9499C35.3128 14.6044 35.9626 14.4215 36.6251 14.4215C37.2877 14.4215 37.9374 14.6044 38.5027 14.9499C39.068 15.2955 39.527 15.7904 39.8291 16.3801L57.8291 52.38C58.1053 52.9281 58.2368 53.5376 58.2111 54.1507C58.1854 54.7639 58.0034 55.3603 57.6824 55.8833C57.3614 56.4063 56.912 56.8385 56.3769 57.139C55.8418 57.4395 55.2388 57.5982 54.6251 57.6H18.6251ZM24.4571 50.4H45.1931L34.8251 29.664L24.4571 50.4Z" fill="#0C0E0C"/>
</svg>
